<svg width="24" height="24" xmlns="http://www.w3.org/2000/svg" fill-rule="evenodd" clip-rule="evenodd"><path d="M22 13c-.027-5.497-4.497-10-10-10s-9.973 4.503-10 10h2.5c.828 0 1.5.672 1.5 1.5v7c0 .828-.672 1.5-1.5 1.5h-3c-.828 0-1.5-.672-1.5-1.5v-8.5c.027-6.601 5.394-12 12-12s11.973 5.399 12 12v8.5c0 .828-.672 1.5-1.5 1.5h-3c-.828 0-1.5-.672-1.5-1.5v-7c0-.828.672-1.5 1.5-1.5h2.5zm-11.151 7.712l.786-4.788.803 3.446c.079.353.569.393.703.053l.727-1.858.678 1.582c.113.262.468.303.637.072l.618-.84h1.199v-.737h-1.391c-.117 0-.229.056-.298.151l-.342.469-.779-1.813c-.13-.303-.562-.296-.683.011l-.616 1.576-.95-4.208c-.09-.398-.659-.375-.724.022l-.788 4.86-.805-2.993c-.09-.357-.595-.377-.709-.023l-.598 1.948h-1.317v.737h1.607c.133 0 .278-.108.315-.235l.298-1.008.906 3.607c.099.389.659.363.723-.031z"/></svg>